# xmcd
#
# Track frame offsets:
#  150
#  19623
#  36846
#  54519
#  71667
#  83790
#  97788
#  111261
#  128034
#  139932
#  152955
#  166503
#  186426
#  199374
#
# Disc length: 2865 seconds
#
# Revision: 0
# Processed by: cddbd v1.5.1PL2 Copyright (c) Steve Scherf et al.
# Submitted via: Collectorz.com_Music_Collector 6.11
#
DISCID=bb0b2f0e
DTITLE=Various Artist - Western Star Records Compilation, Volume 8
DYEAR=2006
DGENRE=Country general
TTITLE0=Rivers, Marty - Queen Of My Heart
TTITLE1=Rivers, Marty - Here Today, Gone Tomorrow
TTITLE2=Wagoner and The Inner Faith Band, Christy - An Angel In My Dreams
TTITLE3=Blair, Roger - For The Good Times
TTITLE4=Blair, Roger - Crazy
TTITLE5=Norman, Jennifer - Let's Fall In Love Again
TTITLE6=Moore, Michael S. - She Moves Me
TTITLE7=Daniels, Deborah - Because You Love Me
TTITLE8=Neil, Paul - If The Devil Danced In Empty Pockets
TTITLE9=Daniels, Brandon - A Little Boy's Prayer
TTITLE10=Houston, Corey - Right Where I Need To Be
TTITLE11=Robicheaux, Margeaux - Down At The Twist And Shout
TTITLE12=Thornsberry, Jason - Wherever This Old Highway Ends
TTITLE13=Bryant, Steve - This Old Bar Stool
EXTD=
EXTT0=
EXTT1=
EXTT2=
EXTT3=
EXTT4=
EXTT5=
EXTT6=
EXTT7=
EXTT8=
EXTT9=
EXTT10=
EXTT11=
EXTT12=
EXTT13=
PLAYORDER=
